<svg width="371" height="84" viewBox="0 0 371 84" fill="none" xmlns="http://www.w3.org/2000/svg">
<g filter="url(#filter0_d_1_5)">
<path d="M19.6875 42.4102C16.9531 42.4102 14.5443 41.8503 12.4609 40.7305C10.3776 39.5977 8.75651 37.9831 7.59766 35.8867C6.4388 33.7904 5.85938 31.2773 5.85938 28.3477V27.2344C5.85938 24.487 6.40625 22.0586 7.5 19.9492C8.59375 17.8268 10.1497 16.1667 12.168 14.9688C14.1992 13.7578 16.6081 13.1523 19.3945 13.1523C21.3477 13.1523 23.1901 13.4193 24.9219 13.9531C26.6667 14.487 28.2487 15.3529 29.668 16.5508V23.6406H25.0781L24.4531 19.3828C24.0104 19.0833 23.5417 18.8229 23.0469 18.6016C22.5521 18.3802 22.0182 18.2109 21.4453 18.0938C20.8724 17.9766 20.2539 17.918 19.5898 17.918C18.0534 17.918 16.7253 18.2891 15.6055 19.0312C14.4857 19.7734 13.6198 20.8346 13.0078 22.2148C12.3958 23.5951 12.0898 25.2552 12.0898 27.1953V28.3477C12.0898 30.2227 12.4023 31.8633 13.0273 33.2695C13.6654 34.6628 14.5638 35.7435 15.7227 36.5117C16.8815 37.2799 18.2292 37.6641 19.7656 37.6641C20.5729 37.6641 21.3802 37.5794 22.1875 37.4102C22.9948 37.2279 23.75 36.9935 24.4531 36.707L25.0977 32.7031H29.6875V39.6562C28.5677 40.4115 27.1549 41.0625 25.4492 41.6094C23.7565 42.1432 21.8359 42.4102 19.6875 42.4102ZM39.2969 42.4102C37.2135 42.4102 35.5404 41.8438 34.2773 40.7109C33.0273 39.5651 32.4023 38.0221 32.4023 36.082C32.4023 34.7669 32.7539 33.6016 33.457 32.5859C34.1732 31.5703 35.2409 30.776 36.6602 30.2031C38.0794 29.6302 39.8438 29.3438 41.9531 29.3438H44.4727V27.9375C44.4727 27 44.1992 26.2253 43.6523 25.6133C43.1185 25.0013 42.2982 24.6953 41.1914 24.6953C40.6576 24.6953 40.1693 24.7604 39.7266 24.8906C39.2969 25.0208 38.8997 25.2096 38.5352 25.457L38.0859 28.1914H33.6328L33.5547 22.5273C34.7005 21.9414 35.9245 21.4531 37.2266 21.0625C38.5286 20.6719 39.974 20.4766 41.5625 20.4766C44.388 20.4766 46.6211 21.1276 48.2617 22.4297C49.9023 23.7318 50.7227 25.5872 50.7227 27.9961V36.2773C50.7227 36.5768 50.7227 36.8698 50.7227 37.1562C50.7357 37.4297 50.7682 37.6966 50.8203 37.957L53.0469 38.3086V42H45.5469C45.3906 41.7005 45.2279 41.349 45.0586 40.9453C44.8893 40.5417 44.7721 40.138 44.707 39.7344C44.043 40.5547 43.2812 41.2057 42.4219 41.6875C41.5625 42.1693 40.5208 42.4102 39.2969 42.4102ZM41.0938 37.8984C41.7448 37.8984 42.3763 37.7552 42.9883 37.4688C43.6003 37.1823 44.0951 36.7917 44.4727 36.2969V33.0938H41.9922C40.8984 33.0938 40.0586 33.3411 39.4727 33.8359C38.8997 34.3307 38.6133 34.9427 38.6133 35.6719C38.6133 36.375 38.8346 36.9219 39.2773 37.3125C39.7331 37.7031 40.3385 37.8984 41.0938 37.8984ZM38.0078 16.8633L41.9727 11.5312H48.457L48.4961 11.6484L43.0859 16.8633H38.1445H38.0078ZM54.6094 42V38.3086L57.2266 37.7031V25.1836L54.2383 24.5781V20.8672H63.4766V37.7031L66.0938 38.3086V42H54.6094ZM57.0312 16.6289V11.5312H63.4766V16.6289H57.0312ZM91.0547 42.4102C88.3203 42.4102 85.9115 41.8503 83.8281 40.7305C81.7448 39.5977 80.1237 37.9831 78.9648 35.8867C77.806 33.7904 77.2266 31.2773 77.2266 28.3477V27.2344C77.2266 24.487 77.7734 22.0586 78.8672 19.9492C79.9609 17.8268 81.5169 16.1667 83.5352 14.9688C85.5664 13.7578 87.9753 13.1523 90.7617 13.1523C92.7148 13.1523 94.5573 13.4193 96.2891 13.9531C98.0339 14.487 99.6159 15.3529 101.035 16.5508V23.6406H96.4453L95.8203 19.3828C95.3776 19.0833 94.9089 18.8229 94.4141 18.6016C93.9193 18.3802 93.3854 18.2109 92.8125 18.0938C92.2396 17.9766 91.6211 17.918 90.957 17.918C89.4206 17.918 88.0924 18.2891 86.9727 19.0312C85.8529 19.7734 84.987 20.8346 84.375 22.2148C83.763 23.5951 83.457 25.2552 83.457 27.1953V28.3477C83.457 30.2227 83.7695 31.8633 84.3945 33.2695C85.0326 34.6628 85.931 35.7435 87.0898 36.5117C88.2487 37.2799 89.5964 37.6641 91.1328 37.6641C91.9401 37.6641 92.7474 37.5794 93.5547 37.4102C94.362 37.2279 95.1172 36.9935 95.8203 36.707L96.4648 32.7031H101.055V39.6562C99.9349 40.4115 98.5221 41.0625 96.8164 41.6094C95.1237 42.1432 93.2031 42.4102 91.0547 42.4102ZM103.262 42V38.3086L105.879 37.7031V15.8477L102.871 15.2422V11.5312H112.09V23.5234C112.741 22.5599 113.542 21.8112 114.492 21.2773C115.456 20.7435 116.562 20.4766 117.812 20.4766C119.896 20.4766 121.556 21.1927 122.793 22.625C124.03 24.0573 124.648 26.2708 124.648 29.2656V37.7031L127.266 38.3086V42H116.152V38.3086L118.398 37.7031V29.2266C118.398 27.7682 118.138 26.7526 117.617 26.1797C117.096 25.5938 116.341 25.3008 115.352 25.3008C114.661 25.3008 114.036 25.4375 113.477 25.7109C112.917 25.9714 112.454 26.3685 112.09 26.9023V37.7031L114.336 38.3086V42H103.262ZM136.016 42.4102C133.932 42.4102 132.259 41.8438 130.996 40.7109C129.746 39.5651 129.121 38.0221 129.121 36.082C129.121 34.7669 129.473 33.6016 130.176 32.5859C130.892 31.5703 131.96 30.776 133.379 30.2031C134.798 29.6302 136.562 29.3438 138.672 29.3438H141.191V27.9375C141.191 27 140.918 26.2253 140.371 25.6133C139.837 25.0013 139.017 24.6953 137.91 24.6953C137.376 24.6953 136.888 24.7604 136.445 24.8906C136.016 25.0208 135.618 25.2096 135.254 25.457L134.805 28.1914H130.352L130.273 22.5273C131.419 21.9414 132.643 21.4531 133.945 21.0625C135.247 20.6719 136.693 20.4766 138.281 20.4766C141.107 20.4766 143.34 21.1276 144.98 22.4297C146.621 23.7318 147.441 25.5872 147.441 27.9961V36.2773C147.441 36.5768 147.441 36.8698 147.441 37.1562C147.454 37.4297 147.487 37.6966 147.539 37.957L149.766 38.3086V42H142.266C142.109 41.7005 141.947 41.349 141.777 40.9453C141.608 40.5417 141.491 40.138 141.426 39.7344C140.762 40.5547 140 41.2057 139.141 41.6875C138.281 42.1693 137.24 42.4102 136.016 42.4102ZM137.812 37.8984C138.464 37.8984 139.095 37.7552 139.707 37.4688C140.319 37.1823 140.814 36.7917 141.191 36.2969V33.0938H138.711C137.617 33.0938 136.777 33.3411 136.191 33.8359C135.618 34.3307 135.332 34.9427 135.332 35.6719C135.332 36.375 135.553 36.9219 135.996 37.3125C136.452 37.7031 137.057 37.8984 137.812 37.8984ZM151.23 42V38.3086L153.848 37.7031V25.1836L150.859 24.5781V20.8672H159.707L159.961 23.8555C160.664 22.7878 161.53 21.9609 162.559 21.375C163.587 20.776 164.759 20.4766 166.074 20.4766C168.105 20.4766 169.707 21.1471 170.879 22.4883C172.051 23.8294 172.637 25.9453 172.637 28.8359V37.7031L175.234 38.3086V42H164.121V38.3086L166.367 37.7031V28.8359C166.367 27.5599 166.107 26.6549 165.586 26.1211C165.078 25.5742 164.336 25.3008 163.359 25.3008C162.63 25.3008 161.992 25.4505 161.445 25.75C160.911 26.0365 160.462 26.4531 160.098 27V37.7031L162.129 38.3086V42H151.23ZM176.621 42V38.3086L179.238 37.7031V15.8477L176.23 15.2422V11.5312H185.449V23.5234C186.1 22.5599 186.901 21.8112 187.852 21.2773C188.815 20.7435 189.922 20.4766 191.172 20.4766C193.255 20.4766 194.915 21.1927 196.152 22.625C197.389 24.0573 198.008 26.2708 198.008 29.2656V37.7031L200.625 38.3086V42H189.512V38.3086L191.758 37.7031V29.2266C191.758 27.7682 191.497 26.7526 190.977 26.1797C190.456 25.5938 189.701 25.3008 188.711 25.3008C188.021 25.3008 187.396 25.4375 186.836 25.7109C186.276 25.9714 185.814 26.3685 185.449 26.9023V37.7031L187.695 38.3086V42H176.621Z" fill="#00C4EF"/>
</g>
<g filter="url(#filter1_d_1_5)">
<path d="M4.7168 56.7812L9.89258 71.0488H13.1641L18.3203 56.7812H15.3906L11.9824 66.3613C11.9303 66.5306 11.8815 66.6934 11.8359 66.8496C11.7969 66.9993 11.7546 67.1719 11.709 67.3672H11.6309C11.5853 67.1719 11.543 66.9993 11.5039 66.8496C11.4714 66.6999 11.4258 66.5371 11.3672 66.3613L8.01758 56.7812H4.7168ZM19.0234 67.123C19.0234 68.5879 19.3457 69.6361 19.9902 70.2676C20.6413 70.8926 21.4714 71.2051 22.4805 71.2051C23.138 71.2051 23.7272 71.0814 24.248 70.834C24.7754 70.5866 25.1855 70.2513 25.4785 69.8281H25.5176L25.5859 71H28.4082V60.8828H25.4492V67.6309C25.2799 68.0085 25.026 68.3242 24.6875 68.5781C24.349 68.8255 23.9648 68.9492 23.5352 68.9492C23.0599 68.9492 22.6823 68.819 22.4023 68.5586C22.1289 68.2917 21.9922 67.8197 21.9922 67.1426V60.8828H19.0234V67.123ZM24.2383 59.3496L25.9668 58.2656L23.4668 55.082L21.2012 56.3711L24.2383 59.3496ZM30.8105 71H33.7793V64.2617C33.9551 63.8451 34.2155 63.5195 34.5605 63.2852C34.9121 63.0508 35.2897 62.9336 35.6934 62.9336C36.1882 62.9336 36.569 63.0605 36.8359 63.3145C37.1029 63.5684 37.2363 64.0078 37.2363 64.6328V71H40.2051V64.623C40.2051 63.1647 39.8763 62.1426 39.2188 61.5566C38.5612 60.9642 37.7148 60.668 36.6797 60.668C36.0286 60.668 35.4427 60.7982 34.9219 61.0586C34.401 61.3125 34.0104 61.6445 33.75 62.0547H33.7012L33.6426 60.8828H30.8105V71ZM42.5684 73.9004C43.0632 74.291 43.6882 74.6165 44.4434 74.877C45.2051 75.1439 46.0384 75.2773 46.9434 75.2773C48.4342 75.2773 49.6615 74.8477 50.625 73.9883C51.5885 73.1289 52.0703 71.8984 52.0703 70.2969V60.8828H49.2383L49.1797 62.0645H49.1309C48.9095 61.6608 48.5384 61.332 48.0176 61.0781C47.5033 60.8177 46.9303 60.6875 46.2988 60.6875C44.9902 60.6875 43.9421 61.153 43.1543 62.084C42.3665 63.015 41.9727 64.2487 41.9727 65.7852V66.0977C41.9727 67.6276 42.3698 68.8581 43.1641 69.7891C43.9583 70.7135 45.0033 71.1758 46.2988 71.1758C46.9694 71.1758 47.5423 71.0651 48.0176 70.8438C48.4928 70.6224 48.8607 70.3099 49.1211 69.9062V70.4531C49.1211 71.3516 48.8932 72.0156 48.4375 72.4453C47.9883 72.875 47.4121 73.0898 46.709 73.0898C46.071 73.0898 45.4753 72.9759 44.9219 72.748C44.3685 72.5267 43.9714 72.2988 43.7305 72.0645L42.5684 73.9004ZM44.9902 66.2148V65.668C44.9902 64.8411 45.166 64.1706 45.5176 63.6562C45.8757 63.1419 46.4095 62.8848 47.1191 62.8848C47.6074 62.8848 48.0208 63.0215 48.3594 63.2949C48.7044 63.5618 48.9551 63.9004 49.1113 64.3105V67.6113C48.9681 67.9694 48.7272 68.2884 48.3887 68.5684C48.0501 68.8483 47.64 68.9883 47.1582 68.9883C46.4225 68.9883 45.8757 68.7344 45.5176 68.2266C45.166 67.7122 44.9902 67.0417 44.9902 66.2148ZM58.8086 66.0977C58.8086 67.6016 59.1992 68.8288 59.9805 69.7793C60.7617 70.7233 61.8359 71.1953 63.2031 71.1953C63.8542 71.1953 64.4271 71.0618 64.9219 70.7949C65.4232 70.528 65.7845 70.196 66.0059 69.7988H66.0449L66.1035 71H68.916V56.1465H65.9766V61.9277C65.7161 61.5566 65.3483 61.2572 64.873 61.0293C64.4043 60.8014 63.8444 60.6875 63.1934 60.6875C61.8913 60.6875 60.8333 61.1628 60.0195 62.1133C59.2122 63.0573 58.8086 64.2812 58.8086 65.7852V66.0977ZM61.8359 66.2148V65.668C61.8359 64.8411 62.015 64.1706 62.373 63.6562C62.7376 63.1419 63.2715 62.8848 63.9746 62.8848C64.4824 62.8848 64.8991 63.015 65.2246 63.2754C65.5566 63.5358 65.8008 63.8516 65.957 64.2227V67.6406C65.7943 68.0117 65.5436 68.3307 65.2051 68.5977C64.8665 68.8646 64.4531 68.998 63.9648 68.998C63.2552 68.998 62.7214 68.7409 62.3633 68.2266C62.0117 67.7122 61.8359 67.0417 61.8359 66.2148ZM66.4453 59.3203H69.7168V57.4746H66.8359H63.6133L63.5059 59.3203H66.4453ZM70.8203 68.0312C70.8203 69.0794 71.1523 69.8672 71.8164 70.3945C72.4805 70.9219 73.3138 71.1855 74.3164 71.1855C75.1562 71.1855 75.8561 71.0358 76.416 70.7363C76.9824 70.4303 77.3633 70.0853 77.5586 69.7012C77.5846 69.9355 77.627 70.1732 77.6855 70.4141C77.7441 70.6549 77.8158 70.8503 77.9004 71H80.8105V70.8438C80.6803 70.5833 80.5762 70.2676 80.498 69.8965C80.4264 69.5254 80.3906 69.1348 80.3906 68.7246V64.0957C80.3906 62.8978 80.0033 62.0156 79.2285 61.4492C78.4603 60.8828 77.3861 60.5996 76.0059 60.5996C74.6257 60.5996 73.5059 60.8958 72.6465 61.4883C71.7936 62.0807 71.3672 62.8359 71.3672 63.7539V63.9102L74.2578 63.9199V63.7539C74.2578 63.4154 74.3815 63.1322 74.6289 62.9043C74.8763 62.6699 75.2897 62.5527 75.8691 62.5527C76.4486 62.5527 76.8522 62.6927 77.0801 62.9727C77.3145 63.2461 77.4316 63.6107 77.4316 64.0664V64.6426H75.4004C74.0723 64.6491 72.9753 64.9355 72.1094 65.502C71.25 66.0684 70.8203 66.9115 70.8203 68.0312ZM73.7793 67.7773C73.7793 67.3216 73.9518 66.9766 74.2969 66.7422C74.6419 66.5013 75.1725 66.3809 75.8887 66.3809H77.4316V67.3281C77.4316 67.8424 77.2331 68.2884 76.8359 68.666C76.4453 69.0436 75.9538 69.2324 75.3613 69.2324C74.821 69.2324 74.4206 69.1022 74.1602 68.8418C73.9062 68.5749 73.7793 68.2201 73.7793 67.7773ZM76.6992 55.7754H75.1367L72.4023 59.3398H74.5312L75.918 57.8164L77.3145 59.3398H79.4727L76.6992 55.7754ZM78.5156 56.0293L80.1953 57.1426L83.2422 54.1738L80.9766 52.875L78.5156 56.0293ZM81.6602 63.0312H88.0371V60.8828H81.6602V63.0312ZM83.1738 67.9629C83.1738 69.1087 83.4603 69.9486 84.0332 70.4824C84.6126 71.0098 85.3874 71.2734 86.3574 71.2734C86.7155 71.2734 87.0378 71.2441 87.3242 71.1855C87.6172 71.127 87.8418 71.0586 87.998 70.9805V68.8809C87.8613 68.9395 87.7181 68.9883 87.5684 69.0273C87.4186 69.0599 87.2656 69.0762 87.1094 69.0762C86.7904 69.0762 86.543 68.9883 86.3672 68.8125C86.1979 68.6302 86.1133 68.2917 86.1133 67.7969V58.373H83.1934V61.625L83.1738 61.8887V67.9629ZM93.9453 66.0879C93.9453 67.6829 94.4206 68.9492 95.3711 69.8867C96.3216 70.8177 97.5781 71.2832 99.1406 71.2832C100.638 71.2832 101.794 70.9121 102.607 70.1699C103.421 69.4212 103.831 68.526 103.838 67.4844V67.3477H100.957V67.4648C100.957 67.9076 100.817 68.2949 100.537 68.627C100.264 68.9525 99.7949 69.1152 99.1309 69.1152C98.4017 69.1152 97.8581 68.8581 97.5 68.3438C97.1484 67.8229 96.9727 67.123 96.9727 66.2441V65.6191C96.9727 64.7402 97.1549 64.0469 97.5195 63.5391C97.8841 63.0247 98.4212 62.7676 99.1309 62.7676C99.7428 62.7676 100.199 62.9238 100.498 63.2363C100.804 63.5423 100.957 63.9329 100.957 64.4082V64.5352H103.848L103.828 64.3496C103.776 63.3014 103.356 62.4128 102.568 61.6836C101.781 60.9544 100.638 60.5898 99.1406 60.5898C97.5716 60.5898 96.3118 61.0553 95.3613 61.9863C94.4173 62.9173 93.9453 64.1803 93.9453 65.7754V66.0879ZM105 68.0312C105 69.0794 105.332 69.8672 105.996 70.3945C106.66 70.9219 107.493 71.1855 108.496 71.1855C109.336 71.1855 110.036 71.0358 110.596 70.7363C111.162 70.4303 111.543 70.0853 111.738 69.7012C111.764 69.9355 111.807 70.1732 111.865 70.4141C111.924 70.6549 111.995 70.8503 112.08 71H114.99V70.8438C114.86 70.5833 114.756 70.2676 114.678 69.8965C114.606 69.5254 114.57 69.1348 114.57 68.7246V64.0957C114.57 62.8978 114.183 62.0156 113.408 61.4492C112.64 60.8828 111.566 60.5996 110.186 60.5996C108.805 60.5996 107.686 60.8958 106.826 61.4883C105.973 62.0807 105.547 62.8359 105.547 63.7539V63.9102L108.438 63.9199V63.7539C108.438 63.4154 108.561 63.1322 108.809 62.9043C109.056 62.6699 109.469 62.5527 110.049 62.5527C110.628 62.5527 111.032 62.6927 111.26 62.9727C111.494 63.2461 111.611 63.6107 111.611 64.0664V64.6426H109.58C108.252 64.6491 107.155 64.9355 106.289 65.502C105.43 66.0684 105 66.9115 105 68.0312ZM107.959 67.7773C107.959 67.3216 108.132 66.9766 108.477 66.7422C108.822 66.5013 109.352 66.3809 110.068 66.3809H111.611V67.3281C111.611 67.8424 111.413 68.2884 111.016 68.666C110.625 69.0436 110.133 69.2324 109.541 69.2324C109.001 69.2324 108.6 69.1022 108.34 68.8418C108.086 68.5749 107.959 68.2201 107.959 67.7773ZM107.998 58.2266L109.678 59.3398L112.725 56.3711L110.449 55.082L107.998 58.2266ZM116.484 66.0879C116.484 67.6829 116.96 68.9492 117.91 69.8867C118.861 70.8177 120.117 71.2832 121.68 71.2832C123.177 71.2832 124.333 70.9121 125.146 70.1699C125.96 69.4212 126.37 68.526 126.377 67.4844V67.3477H123.496V67.4648C123.496 67.9076 123.356 68.2949 123.076 68.627C122.803 68.9525 122.334 69.1152 121.67 69.1152C120.941 69.1152 120.397 68.8581 120.039 68.3438C119.688 67.8229 119.512 67.123 119.512 66.2441V65.6191C119.512 64.7402 119.694 64.0469 120.059 63.5391C120.423 63.0247 120.96 62.7676 121.67 62.7676C122.282 62.7676 122.738 62.9238 123.037 63.2363C123.343 63.5423 123.496 63.9329 123.496 64.4082V64.5352H126.387L126.367 64.3496C126.315 63.3014 125.895 62.4128 125.107 61.6836C124.32 60.9544 123.177 60.5898 121.68 60.5898C120.111 60.5898 118.851 61.0553 117.9 61.9863C116.956 62.9173 116.484 64.1803 116.484 65.7754V66.0879ZM128.037 71H131.006V64.3398C131.169 63.8906 131.403 63.5456 131.709 63.3047C132.021 63.0573 132.396 62.9336 132.832 62.9336C133.32 62.9336 133.708 63.0703 133.994 63.3438C134.281 63.6172 134.424 64.0794 134.424 64.7305V71H137.383V64.5059C137.383 63.1517 137.074 62.1751 136.455 61.5762C135.837 60.9707 135.049 60.668 134.092 60.668C133.343 60.668 132.712 60.8145 132.197 61.1074C131.689 61.3939 131.289 61.765 130.996 62.2207V56.1465H128.037V71ZM144.6 71H147.568V64.2715C147.744 63.8418 147.985 63.513 148.291 63.2852C148.604 63.0508 148.971 62.9336 149.395 62.9336C149.889 62.9336 150.26 63.0768 150.508 63.3633C150.762 63.6497 150.889 64.099 150.889 64.7109V71H153.857V64.2715C154.04 63.8548 154.287 63.5293 154.6 63.2949C154.919 63.054 155.29 62.9336 155.713 62.9336C156.201 62.9401 156.569 63.0866 156.816 63.373C157.064 63.653 157.188 64.0924 157.188 64.6914V71H160.156V64.7598C160.156 63.2949 159.844 62.25 159.219 61.625C158.6 60.9935 157.783 60.6777 156.768 60.6777C156.09 60.6777 155.452 60.8275 154.854 61.127C154.255 61.4264 153.783 61.8626 153.438 62.4355H153.398C153.164 61.8561 152.783 61.4199 152.256 61.127C151.735 60.8275 151.12 60.6777 150.41 60.6777C149.818 60.6777 149.264 60.8014 148.75 61.0488C148.242 61.2897 147.839 61.6348 147.539 62.084H147.48L147.422 60.8828H144.6V71ZM161.973 68.0312C161.973 69.0794 162.305 69.8672 162.969 70.3945C163.633 70.9219 164.466 71.1855 165.469 71.1855C166.309 71.1855 167.008 71.0358 167.568 70.7363C168.135 70.4303 168.516 70.0853 168.711 69.7012C168.737 69.9355 168.779 70.1732 168.838 70.4141C168.896 70.6549 168.968 70.8503 169.053 71H171.963V70.8438C171.833 70.5833 171.729 70.2676 171.65 69.8965C171.579 69.5254 171.543 69.1348 171.543 68.7246V64.0957C171.543 62.8978 171.156 62.0156 170.381 61.4492C169.613 60.8828 168.538 60.5996 167.158 60.5996C165.778 60.5996 164.658 60.8958 163.799 61.4883C162.946 62.0807 162.52 62.8359 162.52 63.7539V63.9102L165.41 63.9199V63.7539C165.41 63.4154 165.534 63.1322 165.781 62.9043C166.029 62.6699 166.442 62.5527 167.021 62.5527C167.601 62.5527 168.005 62.6927 168.232 62.9727C168.467 63.2461 168.584 63.6107 168.584 64.0664V64.6426H166.553C165.225 64.6491 164.128 64.9355 163.262 65.502C162.402 66.0684 161.973 66.9115 161.973 68.0312ZM164.932 67.7773C164.932 67.3216 165.104 66.9766 165.449 66.7422C165.794 66.5013 166.325 66.3809 167.041 66.3809H168.584V67.3281C168.584 67.8424 168.385 68.2884 167.988 68.666C167.598 69.0436 167.106 69.2324 166.514 69.2324C165.973 69.2324 165.573 69.1022 165.312 68.8418C165.059 68.5749 164.932 68.2201 164.932 67.7773ZM165.42 73.9688C165.42 74.3919 165.56 74.7467 165.84 75.0332C166.12 75.3262 166.52 75.4727 167.041 75.4727C167.568 75.4727 167.972 75.3262 168.252 75.0332C168.532 74.7467 168.672 74.3919 168.672 73.9688C168.672 73.5456 168.532 73.1908 168.252 72.9043C167.972 72.6178 167.568 72.4746 167.041 72.4746C166.52 72.4746 166.12 72.6178 165.84 72.9043C165.56 73.1973 165.42 73.5521 165.42 73.9688ZM173.994 71H176.963V64.2617C177.139 63.8451 177.399 63.5195 177.744 63.2852C178.096 63.0508 178.473 62.9336 178.877 62.9336C179.372 62.9336 179.753 63.0605 180.02 63.3145C180.286 63.5684 180.42 64.0078 180.42 64.6328V71H183.389V64.623C183.389 63.1647 183.06 62.1426 182.402 61.5566C181.745 60.9642 180.898 60.668 179.863 60.668C179.212 60.668 178.626 60.7982 178.105 61.0586C177.585 61.3125 177.194 61.6445 176.934 62.0547H176.885L176.826 60.8828H173.994V71ZM185.752 73.9004C186.247 74.291 186.872 74.6165 187.627 74.877C188.389 75.1439 189.222 75.2773 190.127 75.2773C191.618 75.2773 192.845 74.8477 193.809 73.9883C194.772 73.1289 195.254 71.8984 195.254 70.2969V60.8828H192.422L192.363 62.0645H192.314C192.093 61.6608 191.722 61.332 191.201 61.0781C190.687 60.8177 190.114 60.6875 189.482 60.6875C188.174 60.6875 187.126 61.153 186.338 62.084C185.55 63.015 185.156 64.2487 185.156 65.7852V66.0977C185.156 67.6276 185.553 68.8581 186.348 69.7891C187.142 70.7135 188.187 71.1758 189.482 71.1758C190.153 71.1758 190.726 71.0651 191.201 70.8438C191.676 70.6224 192.044 70.3099 192.305 69.9062V70.4531C192.305 71.3516 192.077 72.0156 191.621 72.4453C191.172 72.875 190.596 73.0898 189.893 73.0898C189.255 73.0898 188.659 72.9759 188.105 72.748C187.552 72.5267 187.155 72.2988 186.914 72.0645L185.752 73.9004ZM188.174 66.2148V65.668C188.174 64.8411 188.35 64.1706 188.701 63.6562C189.059 63.1419 189.593 62.8848 190.303 62.8848C190.791 62.8848 191.204 63.0215 191.543 63.2949C191.888 63.5618 192.139 63.9004 192.295 64.3105V67.6113C192.152 67.9694 191.911 68.2884 191.572 68.5684C191.234 68.8483 190.824 68.9883 190.342 68.9883C189.606 68.9883 189.059 68.7344 188.701 68.2266C188.35 67.7122 188.174 67.0417 188.174 66.2148Z" fill="#FFD600"/>
</g>
<defs>
<filter id="filter0_d_1_5" x="1.85938" y="11.5312" width="202.766" height="38.8789" filterUnits="userSpaceOnUse" color-interpolation-filters="sRGB">
<feFlood flood-opacity="0" result="BackgroundImageFix"/>
<feColorMatrix in="SourceAlpha" type="matrix" values="0 0 0 0 0 0 0 0 0 0 0 0 0 0 0 0 0 0 127 0" result="hardAlpha"/>
<feOffset dy="4"/>
<feGaussianBlur stdDeviation="2"/>
<feComposite in2="hardAlpha" operator="out"/>
<feColorMatrix type="matrix" values="0 0 0 0 0 0 0 0 0 0 0 0 0 0 0 0 0 0 0.25 0"/>
<feBlend mode="normal" in2="BackgroundImageFix" result="effect1_dropShadow_1_5"/>
<feBlend mode="normal" in="SourceGraphic" in2="effect1_dropShadow_1_5" result="shape"/>
</filter>
<filter id="filter1_d_1_5" x="0.716797" y="52.875" width="198.537" height="30.5977" filterUnits="userSpaceOnUse" color-interpolation-filters="sRGB">
<feFlood flood-opacity="0" result="BackgroundImageFix"/>
<feColorMatrix in="SourceAlpha" type="matrix" values="0 0 0 0 0 0 0 0 0 0 0 0 0 0 0 0 0 0 127 0" result="hardAlpha"/>
<feOffset dy="4"/>
<feGaussianBlur stdDeviation="2"/>
<feComposite in2="hardAlpha" operator="out"/>
<feColorMatrix type="matrix" values="0 0 0 0 0 0 0 0 0 0 0 0 0 0 0 0 0 0 0.25 0"/>
<feBlend mode="normal" in2="BackgroundImageFix" result="effect1_dropShadow_1_5"/>
<feBlend mode="normal" in="SourceGraphic" in2="effect1_dropShadow_1_5" result="shape"/>
</filter>
</defs>
</svg>
