<svg width="371" height="84" viewBox="0 0 371 84" fill="none" xmlns="http://www.w3.org/2000/svg">
<g filter="url(#filter0_d_1_5)">
<path d="M19.6875 42.4102C16.9531 42.4102 14.5443 41.8503 12.4609 40.7305C10.3776 39.5977 8.75651 37.9831 7.59766 35.8867C6.4388 33.7904 5.85938 31.2773 5.85938 28.3477V27.2344C5.85938 24.487 6.40625 22.0586 7.5 19.9492C8.59375 17.8268 10.1497 16.1667 12.168 14.9688C14.1992 13.7578 16.6081 13.1523 19.3945 13.1523C21.3477 13.1523 23.1901 13.4193 24.9219 13.9531C26.6667 14.487 28.2487 15.3529 29.668 16.5508V23.6406H25.0781L24.4531 19.3828C24.0104 19.0833 23.5417 18.8229 23.0469 18.6016C22.5521 18.3802 22.0182 18.2109 21.4453 18.0938C20.8724 17.9766 20.2539 17.918 19.5898 17.918C18.0534 17.918 16.7253 18.2891 15.6055 19.0312C14.4857 19.7734 13.6198 20.8346 13.0078 22.2148C12.3958 23.5951 12.0898 25.2552 12.0898 27.1953V28.3477C12.0898 30.2227 12.4023 31.8633 13.0273 33.2695C13.6654 34.6628 14.5638 35.7435 15.7227 36.5117C16.8815 37.2799 18.2292 37.6641 19.7656 37.6641C20.5729 37.6641 21.3802 37.5794 22.1875 37.4102C22.9948 37.2279 23.75 36.9935 24.4531 36.707L25.0977 32.7031H29.6875V39.6562C28.5677 40.4115 27.1549 41.0625 25.4492 41.6094C23.7565 42.1432 21.8359 42.4102 19.6875 42.4102ZM39.2969 42.4102C37.2135 42.4102 35.5404 41.8438 34.2773 40.7109C33.0273 39.5651 32.4023 38.0221 32.4023 36.082C32.4023 34.7669 32.7539 33.6016 33.457 32.5859C34.1732 31.5703 35.2409 30.776 36.6602 30.2031C38.0794 29.6302 39.8438 29.3438 41.9531 29.3438H44.4727V27.9375C44.4727 27 44.1992 26.2253 43.6523 25.6133C43.1185 25.0013 42.2982 24.6953 41.1914 24.6953C40.6576 24.6953 40.1693 24.7604 39.7266 24.8906C39.2969 25.0208 38.8997 25.2096 38.5352 25.457L38.0859 28.1914H33.6328L33.5547 22.5273C34.7005 21.9414 35.9245 21.4531 37.2266 21.0625C38.5286 20.6719 39.974 20.4766 41.5625 20.4766C44.388 20.4766 46.6211 21.1276 48.2617 22.4297C49.9023 23.7318 50.7227 25.5872 50.7227 27.9961V36.2773C50.7227 36.5768 50.7227 36.8698 50.7227 37.1562C50.7357 37.4297 50.7682 37.6966 50.8203 37.957L53.0469 38.3086V42H45.5469C45.3906 41.7005 45.2279 41.349 45.0586 40.9453C44.8893 40.5417 44.7721 40.138 44.707 39.7344C44.043 40.5547 43.2812 41.2057 42.4219 41.6875C41.5625 42.1693 40.5208 42.4102 39.2969 42.4102ZM41.0938 37.8984C41.7448 37.8984 42.3763 37.7552 42.9883 37.4688C43.6003 37.1823 44.0951 36.7917 44.4727 36.2969V33.0938H41.9922C40.8984 33.0938 40.0586 33.3411 39.4727 33.8359C38.8997 34.3307 38.6133 34.9427 38.6133 35.6719C38.6133 36.375 38.8346 36.9219 39.2773 37.3125C39.7331 37.7031 40.3385 37.8984 41.0938 37.8984ZM38.0078 16.8633L41.9727 11.5312H48.457L48.4961 11.6484L43.0859 16.8633H38.1445H38.0078ZM54.6094 42V38.3086L57.2266 37.7031V25.1836L54.2383 24.5781V20.8672H63.4766V37.7031L66.0938 38.3086V42H54.6094ZM57.0312 16.6289V11.5312H63.4766V16.6289H57.0312ZM91.0547 42.4102C88.3203 42.4102 85.9115 41.8503 83.8281 40.7305C81.7448 39.5977 80.1237 37.9831 78.9648 35.8867C77.806 33.7904 77.2266 31.2773 77.2266 28.3477V27.2344C77.2266 24.487 77.7734 22.0586 78.8672 19.9492C79.9609 17.8268 81.5169 16.1667 83.5352 14.9688C85.5664 13.7578 87.9753 13.1523 90.7617 13.1523C92.7148 13.1523 94.5573 13.4193 96.2891 13.9531C98.0339 14.487 99.6159 15.3529 101.035 16.5508V23.6406H96.4453L95.8203 19.3828C95.3776 19.0833 94.9089 18.8229 94.4141 18.6016C93.9193 18.3802 93.3854 18.2109 92.8125 18.0938C92.2396 17.9766 91.6211 17.918 90.957 17.918C89.4206 17.918 88.0924 18.2891 86.9727 19.0312C85.8529 19.7734 84.987 20.8346 84.375 22.2148C83.763 23.5951 83.457 25.2552 83.457 27.1953V28.3477C83.457 30.2227 83.7695 31.8633 84.3945 33.2695C85.0326 34.6628 85.931 35.7435 87.0898 36.5117C88.2487 37.2799 89.5964 37.6641 91.1328 37.6641C91.9401 37.6641 92.7474 37.5794 93.5547 37.4102C94.362 37.2279 95.1172 36.9935 95.8203 36.707L96.4648 32.7031H101.055V39.6562C99.9349 40.4115 98.5221 41.0625 96.8164 41.6094C95.1237 42.1432 93.2031 42.4102 91.0547 42.4102ZM103.262 42V38.3086L105.879 37.7031V15.8477L102.871 15.2422V11.5312H112.09V23.5234C112.741 22.5599 113.542 21.8112 114.492 21.2773C115.456 20.7435 116.562 20.4766 117.812 20.4766C119.896 20.4766 121.556 21.1927 122.793 22.625C124.03 24.0573 124.648 26.2708 124.648 29.2656V37.7031L127.266 38.3086V42H116.152V38.3086L118.398 37.7031V29.2266C118.398 27.7682 118.138 26.7526 117.617 26.1797C117.096 25.5938 116.341 25.3008 115.352 25.3008C114.661 25.3008 114.036 25.4375 113.477 25.7109C112.917 25.9714 112.454 26.3685 112.09 26.9023V37.7031L114.336 38.3086V42H103.262ZM136.016 42.4102C133.932 42.4102 132.259 41.8438 130.996 40.7109C129.746 39.5651 129.121 38.0221 129.121 36.082C129.121 34.7669 129.473 33.6016 130.176 32.5859C130.892 31.5703 131.96 30.776 133.379 30.2031C134.798 29.6302 136.562 29.3438 138.672 29.3438H141.191V27.9375C141.191 27 140.918 26.2253 140.371 25.6133C139.837 25.0013 139.017 24.6953 137.91 24.6953C137.376 24.6953 136.888 24.7604 136.445 24.8906C136.016 25.0208 135.618 25.2096 135.254 25.457L134.805 28.1914H130.352L130.273 22.5273C131.419 21.9414 132.643 21.4531 133.945 21.0625C135.247 20.6719 136.693 20.4766 138.281 20.4766C141.107 20.4766 143.34 21.1276 144.98 22.4297C146.621 23.7318 147.441 25.5872 147.441 27.9961V36.2773C147.441 36.5768 147.441 36.8698 147.441 37.1562C147.454 37.4297 147.487 37.6966 147.539 37.957L149.766 38.3086V42H142.266C142.109 41.7005 141.947 41.349 141.777 40.9453C141.608 40.5417 141.491 40.138 141.426 39.7344C140.762 40.5547 140 41.2057 139.141 41.6875C138.281 42.1693 137.24 42.4102 136.016 42.4102ZM137.812 37.8984C138.464 37.8984 139.095 37.7552 139.707 37.4688C140.319 37.1823 140.814 36.7917 141.191 36.2969V33.0938H138.711C137.617 33.0938 136.777 33.3411 136.191 33.8359C135.618 34.3307 135.332 34.9427 135.332 35.6719C135.332 36.375 135.553 36.9219 135.996 37.3125C136.452 37.7031 137.057 37.8984 137.812 37.8984ZM151.23 42V38.3086L153.848 37.7031V25.1836L150.859 24.5781V20.8672H159.707L159.961 23.8555C160.664 22.7878 161.53 21.9609 162.559 21.375C163.587 20.776 164.759 20.4766 166.074 20.4766C168.105 20.4766 169.707 21.1471 170.879 22.4883C172.051 23.8294 172.637 25.9453 172.637 28.8359V37.7031L175.234 38.3086V42H164.121V38.3086L166.367 37.7031V28.8359C166.367 27.5599 166.107 26.6549 165.586 26.1211C165.078 25.5742 164.336 25.3008 163.359 25.3008C162.63 25.3008 161.992 25.4505 161.445 25.75C160.911 26.0365 160.462 26.4531 160.098 27V37.7031L162.129 38.3086V42H151.23ZM176.621 42V38.3086L179.238 37.7031V15.8477L176.23 15.2422V11.5312H185.449V23.5234C186.1 22.5599 186.901 21.8112 187.852 21.2773C188.815 20.7435 189.922 20.4766 191.172 20.4766C193.255 20.4766 194.915 21.1927 196.152 22.625C197.389 24.0573 198.008 26.2708 198.008 29.2656V37.7031L200.625 38.3086V42H189.512V38.3086L191.758 37.7031V29.2266C191.758 27.7682 191.497 26.7526 190.977 26.1797C190.456 25.5938 189.701 25.3008 188.711 25.3008C188.021 25.3008 187.396 25.4375 186.836 25.7109C186.276 25.9714 185.814 26.3685 185.449 26.9023V37.7031L187.695 38.3086V42H176.621Z" fill="#00C4EF"/>
</g>
<g filter="url(#filter1_d_1_5)">
<path d="M4.7168 56.7812L9.89258 71.0488H13.1641L18.3203 56.7812H15.3906L11.9824 66.3613C11.9303 66.5306 11.8815 66.6934 11.8359 66.8496C11.7969 66.9993 11.7546 67.1719 11.709 67.3672H11.6309C11.5853 67.1719 11.543 66.9993 11.5039 66.8496C11.4714 66.6999 11.4258 66.5371 11.3672 66.3613L8.01758 56.7812H4.7168ZM19.0234 67.123C19.0234 68.5879 19.3457 69.6361 19.9902 70.2676C20.6413 70.8926 21.4714 71.2051 22.4805 71.2051C23.138 71.2051 23.7272 71.0814 24.248 70.834C24.7754 70.5866 25.1855 70.2513 25.4785 69.8281H25.5176L25.5859 71H28.4082V60.8828H25.4492V67.6309C25.2799 68.0085 25.026 68.3242 24.6875 68.5781C24.349 68.8255 23.9648 68.9492 23.5352 68.9492C23.0599 68.9492 22.6823 68.819 22.4023 68.5586C22.1289 68.2917 21.9922 67.8197 21.9922 67.1426V60.8828H19.0234V67.123ZM24.2383 59.3496L25.9668 58.2656L23.4668 55.082L21.2012 56.3711L24.2383 59.3496ZM30.8105 71H33.7793V64.2617C33.9551 63.8451 34.2155 63.5195 34.5605 63.2852C34.9121 63.0508 35.2897 62.9336 35.6934 62.9336C36.1882 62.9336 36.569 63.0605 36.8359 63.3145C37.1029 63.5684 37.2363 64.0078 37.2363 64.6328V71H40.2051V64.623C40.2051 63.1647 39.8763 62.1426 39.2188 61.5566C38.5612 60.9642 37.7148 60.668 36.6797 60.668C36.0286 60.668 35.4427 60.7982 34.9219 61.0586C34.401 61.3125 34.0104 61.6445 33.75 62.0547H33.7012L33.6426 60.8828H30.8105V71ZM42.5684 73.9004C43.0632 74.291 43.6882 74.6165 44.4434 74.877C45.2051 75.1439 46.0384 75.2773 46.9434 75.2773C48.4342 75.2773 49.6615 74.8477 50.625 73.9883C51.5885 73.1289 52.0703 71.8984 52.0703 70.2969V60.8828H49.2383L49.1797 62.0645H49.1309C48.9095 61.6608 48.5384 61.332 48.0176 61.0781C47.5033 60.8177 46.9303 60.6875 46.2988 60.6875C44.9902 60.6875 43.9421 61.153 43.1543 62.084C42.3665 63.015 41.9727 64.2487 41.9727 65.7852V66.0977C41.9727 67.6276 42.3698 68.8581 43.1641 69.7891C43.9583 70.7135 45.0033 71.1758 46.2988 71.1758C46.9694 71.1758 47.5423 71.0651 48.0176 70.8438C48.4928 70.6224 48.8607 70.3099 49.1211 69.9062V70.4531C49.1211 71.3516 48.8932 72.0156 48.4375 72.4453C47.9883 72.875 47.4121 73.0898 46.709 73.0898C46.071 73.0898 45.4753 72.9759 44.9219 72.748C44.3685 72.5267 43.9714 72.2988 43.7305 72.0645L42.5684 73.9004ZM44.9902 66.2148V65.668C44.9902 64.8411 45.166 64.1706 45.5176 63.6562C45.8757 63.1419 46.4095 62.8848 47.1191 62.8848C47.6074 62.8848 48.0208 63.0215 48.3594 63.2949C48.7044 63.5618 48.9551 63.9004 49.1113 64.3105V67.6113C48.9681 67.9694 48.7272 68.2884 48.3887 68.5684C48.0501 68.8483 47.64 68.9883 47.1582 68.9883C46.4225 68.9883 45.8757 68.7344 45.5176 68.2266C45.166 67.7122 44.9902 67.0417 44.9902 66.2148ZM58.8086 66.0977C58.8086 67.6016 59.1992 68.8288 59.9805 69.7793C60.7617 70.7233 61.8359 71.1953 63.2031 71.1953C63.8542 71.1953 64.4271 71.0618 64.9219 70.7949C65.4232 70.528 65.7845 70.196 66.0059 69.7988H66.0449L66.1035 71H68.916V56.1465H65.9766V61.9277C65.7161 61.5566 65.3483 61.2572 64.873 61.0293C64.4043 60.8014 63.8444 60.6875 63.1934 60.6875C61.8913 60.6875 60.8333 61.1628 60.0195 62.1133C59.2122 63.0573 58.8086 64.2812 58.8086 65.7852V66.0977ZM61.8359 66.2148V65.668C61.8359 64.8411 62.015 64.1706 62.373 63.6562C62.7376 63.1419 63.2715 62.8848 63.9746 62.8848C64.4824 62.8848 64.8991 63.015 65.2246 63.2754C65.5566 63.5358 65.8008 63.8516 65.957 64.2227V67.6406C65.7943 68.0117 65.5436 68.3307 65.2051 68.5977C64.8665 68.8646 64.4531 68.998 63.9648 68.998C63.2552 68.998 62.7214 68.7409 62.3633 68.2266C62.0117 67.7122 61.8359 67.0417 61.8359 66.2148ZM66.4453 59.3203H69.7168V57.4746H66.8359H63.6133L63.5059 59.3203H66.4453ZM70.8203 68.0312C70.8203 69.0794 71.1523 69.8672 71.8164 70.3945C72.4805 70.9219 73.3138 71.1855 74.3164 71.1855C75.1562 71.1855 75.8561 71.0358 76.416 70.7363C76.9824 70.4303 77.3633 70.0853 77.5586 69.7012C77.5846 69.9355 77.627 70.1732 77.6855 70.4141C77.7441 70.6549 77.8158 70.8503 77.9004 71H80.8105V70.8438C80.6803 70.5833 80.5762 70.2676 80.498 69.8965C80.4264 69.5254 80.3906 69.1348 80.3906 68.7246V64.0957C80.3906 62.8978 80.0033 62.0156 79.2285 61.4492C78.4603 60.8828 77.3861 60.5996 76.0059 60.5996C74.6257 60.5996 73.5059 60.8958 72.6465 61.4883C71.7936 62.0807 71.3672 62.8359 71.3672 63.7539V63.9102L74.2578 63.9199V63.7539C74.2578 63.4154 74.3815 63.1322 74.6289 62.9043C74.8763 62.6699 75.2897 62.5527 75.8691 62.5527C76.4486 62.5527 76.8522 62.6927 77.0801 62.9727C77.3145 63.2461 77.4316 63.6107 77.4316 64.0664V64.6426H75.4004C74.0723 64.6491 72.9753 64.9355 72.1094 65.502C71.25 66.0684 70.8203 66.9115 70.8203 68.0312ZM73.7793 67.7773C73.7793 67.3216 73.9518 66.9766 74.2969 66.7422C74.6419 66.5013 75.1725 66.3809 75.8887 66.3809H77.4316V67.3281C77.4316 67.8424 77.2331 68.2884 76.8359 68.666C76.4453 69.0436 75.9538 69.2324 75.3613 69.2324C74.821 69.2324 74.4206 69.1022 74.1602 68.8418C73.9062 68.5749 73.7793 68.2201 73.7793 67.7773ZM76.6992 55.7754H75.1367L72.4023 59.3398H74.5312L75.918 57.8164L77.3145 59.3398H79.4727L76.6992 55.7754ZM78.5156 56.0293L80.1953 57.1426L83.2422 54.1738L80.9766 52.875L78.5156 56.0293ZM81.6602 63.0312H88.0371V60.8828H81.6602V63.0312ZM83.1738 67.9629C83.1738 69.1087 83.4603 69.9486 84.0332 70.4824C84.6126 71.0098 85.3874 71.2734 86.3574 71.2734C86.7155 71.2734 87.0378 71.2441 87.3242 71.1855C87.6172 71.127 87.8418 71.0586 87.998 70.9805V68.8809C87.8613 68.9395 87.7181 68.9883 87.5684 69.0273C87.4186 69.0599 87.2656 69.0762 87.1094 69.0762C86.7904 69.0762 86.543 68.9883 86.3672 68.8125C86.1979 68.6302 86.1133 68.2917 86.1133 67.7969V58.373H83.1934V61.625L83.1738 61.8887V67.9629ZM94.1992 64.3301C94.1992 66.6022 94.7721 68.3275 95.918 69.5059C97.0703 70.6842 98.5872 71.2734 100.469 71.2734C102.246 71.2734 103.633 70.8145 104.629 69.8965C105.632 68.972 106.162 67.7904 106.221 66.3516V65.9805H103.164V66.332C103.125 67.1393 102.887 67.7806 102.451 68.2559C102.015 68.7311 101.361 68.9688 100.488 68.9688C99.5117 68.9688 98.7435 68.6172 98.1836 67.9141C97.6302 67.2044 97.3535 66.1465 97.3535 64.7402V63.041C97.3535 61.5371 97.6367 60.4596 98.2031 59.8086C98.7695 59.151 99.5182 58.8223 100.449 58.8223C101.367 58.8223 102.048 59.0469 102.49 59.4961C102.939 59.9453 103.164 60.5833 103.164 61.4102V61.8105H106.221V61.4883C106.221 60.0039 105.706 58.8027 104.678 57.8848C103.649 56.9668 102.246 56.5078 100.469 56.5078C98.6068 56.5078 97.0964 57.0905 95.9375 58.2559C94.7786 59.4212 94.1992 61.153 94.1992 63.4512V64.3301ZM107.441 68.0312C107.441 69.0794 107.773 69.8672 108.438 70.3945C109.102 70.9219 109.935 71.1855 110.938 71.1855C111.777 71.1855 112.477 71.0358 113.037 70.7363C113.604 70.4303 113.984 70.0853 114.18 69.7012C114.206 69.9355 114.248 70.1732 114.307 70.4141C114.365 70.6549 114.437 70.8503 114.521 71H117.432V70.8438C117.301 70.5833 117.197 70.2676 117.119 69.8965C117.048 69.5254 117.012 69.1348 117.012 68.7246V64.0957C117.012 62.8978 116.624 62.0156 115.85 61.4492C115.081 60.8828 114.007 60.5996 112.627 60.5996C111.247 60.5996 110.127 60.8958 109.268 61.4883C108.415 62.0807 107.988 62.8359 107.988 63.7539V63.9102L110.879 63.9199V63.7539C110.879 63.4154 111.003 63.1322 111.25 62.9043C111.497 62.6699 111.911 62.5527 112.49 62.5527C113.07 62.5527 113.473 62.6927 113.701 62.9727C113.936 63.2461 114.053 63.6107 114.053 64.0664V64.6426H112.021C110.693 64.6491 109.596 64.9355 108.73 65.502C107.871 66.0684 107.441 66.9115 107.441 68.0312ZM110.4 67.7773C110.4 67.3216 110.573 66.9766 110.918 66.7422C111.263 66.5013 111.794 66.3809 112.51 66.3809H114.053V67.3281C114.053 67.8424 113.854 68.2884 113.457 68.666C113.066 69.0436 112.575 69.2324 111.982 69.2324C111.442 69.2324 111.042 69.1022 110.781 68.8418C110.527 68.5749 110.4 68.2201 110.4 67.7773ZM110.439 58.2266L112.119 59.3398L115.166 56.3711L112.891 55.082L110.439 58.2266ZM118.926 66.0879C118.926 67.6829 119.401 68.9492 120.352 69.8867C121.302 70.8177 122.559 71.2832 124.121 71.2832C125.618 71.2832 126.774 70.9121 127.588 70.1699C128.402 69.4212 128.812 68.526 128.818 67.4844V67.3477H125.938V67.4648C125.938 67.9076 125.798 68.2949 125.518 68.627C125.244 68.9525 124.775 69.1152 124.111 69.1152C123.382 69.1152 122.839 68.8581 122.48 68.3438C122.129 67.8229 121.953 67.123 121.953 66.2441V65.6191C121.953 64.7402 122.135 64.0469 122.5 63.5391C122.865 63.0247 123.402 62.7676 124.111 62.7676C124.723 62.7676 125.179 62.9238 125.479 63.2363C125.785 63.5423 125.938 63.9329 125.938 64.4082V64.5352H128.828L128.809 64.3496C128.757 63.3014 128.337 62.4128 127.549 61.6836C126.761 60.9544 125.618 60.5898 124.121 60.5898C122.552 60.5898 121.292 61.0553 120.342 61.9863C119.398 62.9173 118.926 64.1803 118.926 65.7754V66.0879ZM130.479 71H133.447V64.3398C133.61 63.8906 133.844 63.5456 134.15 63.3047C134.463 63.0573 134.837 62.9336 135.273 62.9336C135.762 62.9336 136.149 63.0703 136.436 63.3438C136.722 63.6172 136.865 64.0794 136.865 64.7305V71H139.824V64.5059C139.824 63.1517 139.515 62.1751 138.896 61.5762C138.278 60.9707 137.49 60.668 136.533 60.668C135.785 60.668 135.153 60.8145 134.639 61.1074C134.131 61.3939 133.73 61.765 133.438 62.2207V56.1465H130.479V71ZM147.041 71H150.01V64.2715C150.186 63.8418 150.426 63.513 150.732 63.2852C151.045 63.0508 151.413 62.9336 151.836 62.9336C152.331 62.9336 152.702 63.0768 152.949 63.3633C153.203 63.6497 153.33 64.099 153.33 64.7109V71H156.299V64.2715C156.481 63.8548 156.729 63.5293 157.041 63.2949C157.36 63.054 157.731 62.9336 158.154 62.9336C158.643 62.9401 159.01 63.0866 159.258 63.373C159.505 63.653 159.629 64.0924 159.629 64.6914V71H162.598V64.7598C162.598 63.2949 162.285 62.25 161.66 61.625C161.042 60.9935 160.225 60.6777 159.209 60.6777C158.532 60.6777 157.894 60.8275 157.295 61.127C156.696 61.4264 156.224 61.8626 155.879 62.4355H155.84C155.605 61.8561 155.225 61.4199 154.697 61.127C154.176 60.8275 153.561 60.6777 152.852 60.6777C152.259 60.6777 151.706 60.8014 151.191 61.0488C150.684 61.2897 150.28 61.6348 149.98 62.084H149.922L149.863 60.8828H147.041V71ZM164.414 68.0312C164.414 69.0794 164.746 69.8672 165.41 70.3945C166.074 70.9219 166.908 71.1855 167.91 71.1855C168.75 71.1855 169.45 71.0358 170.01 70.7363C170.576 70.4303 170.957 70.0853 171.152 69.7012C171.178 69.9355 171.221 70.1732 171.279 70.4141C171.338 70.6549 171.41 70.8503 171.494 71H174.404V70.8438C174.274 70.5833 174.17 70.2676 174.092 69.8965C174.02 69.5254 173.984 69.1348 173.984 68.7246V64.0957C173.984 62.8978 173.597 62.0156 172.822 61.4492C172.054 60.8828 170.98 60.5996 169.6 60.5996C168.219 60.5996 167.1 60.8958 166.24 61.4883C165.387 62.0807 164.961 62.8359 164.961 63.7539V63.9102L167.852 63.9199V63.7539C167.852 63.4154 167.975 63.1322 168.223 62.9043C168.47 62.6699 168.883 62.5527 169.463 62.5527C170.042 62.5527 170.446 62.6927 170.674 62.9727C170.908 63.2461 171.025 63.6107 171.025 64.0664V64.6426H168.994C167.666 64.6491 166.569 64.9355 165.703 65.502C164.844 66.0684 164.414 66.9115 164.414 68.0312ZM167.373 67.7773C167.373 67.3216 167.546 66.9766 167.891 66.7422C168.236 66.5013 168.766 66.3809 169.482 66.3809H171.025V67.3281C171.025 67.8424 170.827 68.2884 170.43 68.666C170.039 69.0436 169.548 69.2324 168.955 69.2324C168.415 69.2324 168.014 69.1022 167.754 68.8418C167.5 68.5749 167.373 68.2201 167.373 67.7773ZM167.861 73.9688C167.861 74.3919 168.001 74.7467 168.281 75.0332C168.561 75.3262 168.962 75.4727 169.482 75.4727C170.01 75.4727 170.413 75.3262 170.693 75.0332C170.973 74.7467 171.113 74.3919 171.113 73.9688C171.113 73.5456 170.973 73.1908 170.693 72.9043C170.413 72.6178 170.01 72.4746 169.482 72.4746C168.962 72.4746 168.561 72.6178 168.281 72.9043C168.001 73.1973 167.861 73.5521 167.861 73.9688ZM176.436 71H179.404V64.2617C179.58 63.8451 179.84 63.5195 180.186 63.2852C180.537 63.0508 180.915 62.9336 181.318 62.9336C181.813 62.9336 182.194 63.0605 182.461 63.3145C182.728 63.5684 182.861 64.0078 182.861 64.6328V71H185.83V64.623C185.83 63.1647 185.501 62.1426 184.844 61.5566C184.186 60.9642 183.34 60.668 182.305 60.668C181.654 60.668 181.068 60.7982 180.547 61.0586C180.026 61.3125 179.635 61.6445 179.375 62.0547H179.326L179.268 60.8828H176.436V71ZM188.193 73.9004C188.688 74.291 189.313 74.6165 190.068 74.877C190.83 75.1439 191.663 75.2773 192.568 75.2773C194.059 75.2773 195.286 74.8477 196.25 73.9883C197.214 73.1289 197.695 71.8984 197.695 70.2969V60.8828H194.863L194.805 62.0645H194.756C194.535 61.6608 194.163 61.332 193.643 61.0781C193.128 60.8177 192.555 60.6875 191.924 60.6875C190.615 60.6875 189.567 61.153 188.779 62.084C187.992 63.015 187.598 64.2487 187.598 65.7852V66.0977C187.598 67.6276 187.995 68.8581 188.789 69.7891C189.583 70.7135 190.628 71.1758 191.924 71.1758C192.594 71.1758 193.167 71.0651 193.643 70.8438C194.118 70.6224 194.486 70.3099 194.746 69.9062V70.4531C194.746 71.3516 194.518 72.0156 194.062 72.4453C193.613 72.875 193.037 73.0898 192.334 73.0898C191.696 73.0898 191.1 72.9759 190.547 72.748C189.993 72.5267 189.596 72.2988 189.355 72.0645L188.193 73.9004ZM190.615 66.2148V65.668C190.615 64.8411 190.791 64.1706 191.143 63.6562C191.501 63.1419 192.035 62.8848 192.744 62.8848C193.232 62.8848 193.646 63.0215 193.984 63.2949C194.329 63.5618 194.58 63.9004 194.736 64.3105V67.6113C194.593 67.9694 194.352 68.2884 194.014 68.5684C193.675 68.8483 193.265 68.9883 192.783 68.9883C192.048 68.9883 191.501 68.7344 191.143 68.2266C190.791 67.7122 190.615 67.0417 190.615 66.2148Z" fill="#FFD600"/>
</g>
<defs>
<filter id="filter0_d_1_5" x="1.85938" y="11.5312" width="202.766" height="38.8789" filterUnits="userSpaceOnUse" color-interpolation-filters="sRGB">
<feFlood flood-opacity="0" result="BackgroundImageFix"/>
<feColorMatrix in="SourceAlpha" type="matrix" values="0 0 0 0 0 0 0 0 0 0 0 0 0 0 0 0 0 0 127 0" result="hardAlpha"/>
<feOffset dy="4"/>
<feGaussianBlur stdDeviation="2"/>
<feComposite in2="hardAlpha" operator="out"/>
<feColorMatrix type="matrix" values="0 0 0 0 0 0 0 0 0 0 0 0 0 0 0 0 0 0 0.25 0"/>
<feBlend mode="normal" in2="BackgroundImageFix" result="effect1_dropShadow_1_5"/>
<feBlend mode="normal" in="SourceGraphic" in2="effect1_dropShadow_1_5" result="shape"/>
</filter>
<filter id="filter1_d_1_5" x="0.716797" y="52.875" width="200.979" height="30.5977" filterUnits="userSpaceOnUse" color-interpolation-filters="sRGB">
<feFlood flood-opacity="0" result="BackgroundImageFix"/>
<feColorMatrix in="SourceAlpha" type="matrix" values="0 0 0 0 0 0 0 0 0 0 0 0 0 0 0 0 0 0 127 0" result="hardAlpha"/>
<feOffset dy="4"/>
<feGaussianBlur stdDeviation="2"/>
<feComposite in2="hardAlpha" operator="out"/>
<feColorMatrix type="matrix" values="0 0 0 0 0 0 0 0 0 0 0 0 0 0 0 0 0 0 0.25 0"/>
<feBlend mode="normal" in2="BackgroundImageFix" result="effect1_dropShadow_1_5"/>
<feBlend mode="normal" in="SourceGraphic" in2="effect1_dropShadow_1_5" result="shape"/>
</filter>
</defs>
</svg>
